<svg xmlns="http://www.w3.org/2000/svg" viewBox="0 0 286.44 325.44"><defs><style>.cls-1{fill:#344b9b;}</style></defs><g id="Calque_2" data-name="Calque 2"><path class="cls-1" d="M269.76,48.57c-1.6-11.28-3.68-23.51-12.06-31.22-7.68-7.08-18.8-8.61-29.16-9.81C178.89,1.77,128.51-4,79.12,3.71c-22.44,3.5-45.76,10.55-60.77,27.6C-2.57,55.07-1.39,90.46,1.77,122,3.64,140.69-.91,259.56,20.92,292.78c12.09,18.4,41.76,17.52,62.9,23.69,37.24,10.87,80.35,11.67,118.19,3.4,18-3.92,30.2-6.4,41.41-7.51a51.45,51.45,0,0,0,8-6.79c5-5.57,9-12,13.08-18.26,6.12-9.49,9.33-19.74,12.6-30.14-.31-9.92,2.46-19.16,5.21-31.91C294.12,170.56,277.5,103.09,269.76,48.57ZM105.94,69.64c-13.54,0-23.44.63-28.95,1.88a68.47,68.47,0,0,1-8.9-.75L69,52c8.77.25,21.3.5,31.58.5h32.33a86.66,86.66,0,0,1,7.26,15.78c-5.64,6.27-22.93,27.82-44.48,55.39h5.64c13.78,0,23.81-.63,29.45-1.88a68.17,68.17,0,0,1,8.89.75l-2.25,18.67c-5.27-.25-19.93-.37-36.72-.37H71.85A87.15,87.15,0,0,1,64.58,125c5.64-6.27,22.94-27.82,44.49-55.39ZM123.46,247.4c-9.52,6.39-23.55,9.9-24.81,9.9-5.26,0-23.93-1.63-29.07-1.63.76-8.65,1.26-25.19,1.26-41.1v-6c0-16.29-.5-32.7-1.26-41.22,8,0,28.32-1.63,29.58-1.63,25.68,0,42.72,17.92,42.72,44.73C141.88,226.6,135.62,239.25,123.46,247.4ZM164,99.72l1.12-6c3.26-17.42,5.77-34,6.27-41.47,4.38.12,13.16.25,21.68.25,12.28,0,20.55-.25,27.06-.5a34.34,34.34,0,0,1-3.63,11.52l-4,.38a106,106,0,0,0-19.3-1.75,108.47,108.47,0,0,0-11,.5c-2,8.52-4.14,18.92-5.89,28.32,10.52-.38,20.8-1,26.31-1.51A33.88,33.88,0,0,1,199,101.09c-4.89-.37-14.41-.75-24.56-.75-2.13,11.41-3.88,22.31-5,30.33,4.26.37,9,.5,13.41.5a137.94,137.94,0,0,0,21.93-1.63l3.88.37a36.08,36.08,0,0,1-3.63,11.28c-3.76-.25-13-.37-23.81-.37-10.53,0-21.05.12-26.19.37C157.68,131.17,161.31,113.75,164,99.72ZM219.19,256c-11.65-.25-25.43-.37-34.83-.37h-29.2c.75-8.65,1.26-25.19,1.26-41.1v-6c0-16.29-.51-32.7-1.26-41.47l27.69.25h1.38c13.29,0,26.82-.25,34.09-.51l-2.13,19.05a68.47,68.47,0,0,1-8.9.75c-4.51-1-12.53-1.63-20.68-1.63H182.1c-.25,5.39-.25,11.28-.37,17.17,11.52-.12,21.05-.5,25.31-1l-1.76,19.17c-4.51-.5-13.28-.88-23.55-1,0,6.51.12,12.78.37,18.54,2.38.13,4.89.13,6.89.13a156.43,156.43,0,0,0,23.44-1.63,68.17,68.17,0,0,1,8.89.75Z"/><path class="cls-1" d="M95.15,175.85c-2.64,0-7.52.25-12.41.63-.37,8.89-.63,20.54-.63,32v6c0,11.53.26,23.06.63,31.83,5.76.5,12,.88,15.66.88,18.8,0,31.08-13,31.08-34.09C129.48,190.76,115.7,175.85,95.15,175.85Z"/></g></svg>